<svg xmlns="http://www.w3.org/2000/svg" viewBox="0 0 640 400" role="img" aria-label="Cartesian coordinate plane with point P in quadrant II"><rect width="640" height="400" fill="#fff"/><g stroke="#dbe3ee" stroke-width="1"><line x1="70" y1="40" x2="70" y2="360"/><line x1="70" y1="40" x2="574" y2="40"/><line x1="112" y1="40" x2="112" y2="360"/><line x1="70" y1="67" x2="574" y2="67"/><line x1="154" y1="40" x2="154" y2="360"/><line x1="70" y1="94" x2="574" y2="94"/><line x1="196" y1="40" x2="196" y2="360"/><line x1="70" y1="121" x2="574" y2="121"/><line x1="238" y1="40" x2="238" y2="360"/><line x1="70" y1="148" x2="574" y2="148"/><line x1="280" y1="40" x2="280" y2="360"/><line x1="70" y1="175" x2="574" y2="175"/><line x1="322" y1="40" x2="322" y2="360"/><line x1="70" y1="202" x2="574" y2="202"/><line x1="364" y1="40" x2="364" y2="360"/><line x1="70" y1="229" x2="574" y2="229"/><line x1="406" y1="40" x2="406" y2="360"/><line x1="70" y1="256" x2="574" y2="256"/><line x1="448" y1="40" x2="448" y2="360"/><line x1="70" y1="283" x2="574" y2="283"/><line x1="490" y1="40" x2="490" y2="360"/><line x1="70" y1="310" x2="574" y2="310"/><line x1="532" y1="40" x2="532" y2="360"/><line x1="70" y1="337" x2="574" y2="337"/><line x1="574" y1="40" x2="574" y2="360"/><line x1="70" y1="364" x2="574" y2="364"/></g><g stroke="#0f172a" stroke-width="3"><line x1="322" y1="28" x2="322" y2="372"/><line x1="55" y1="202" x2="590" y2="202"/></g><polygon points="322,24 315,38 329,38" fill="#0f172a"/><polygon points="586,202 572,195 572,209" fill="#0f172a"/><circle cx="238" cy="148" r="10" fill="#2563eb"/><text x="252" y="139" font-family="Arial,sans-serif" font-size="24" font-weight="700" fill="#0f172a">P</text><text x="593" y="196" font-family="Arial,sans-serif" font-size="22" font-style="italic">x</text><text x="330" y="45" font-family="Arial,sans-serif" font-size="22" font-style="italic">y</text><text x="238" y="223" font-family="Arial,sans-serif" font-size="16">−2</text><text x="311" y="223" font-family="Arial,sans-serif" font-size="16">0</text></svg>